# WaveFront *.obj file (generated by Autodesk ATF)

mtllib roll_arrow.mtl

g Solid1

v -0.700000 -0.060000 -0.005000
v -0.700000 -0.060000 0.005000
v -0.700000 0.000000 -0.005000
v -0.700000 0.000000 0.005000
v -0.060000 -0.060000 -0.005000
v -0.060000 -0.060000 0.005000
v -0.060000 0.000000 -0.005000
v -0.060000 0.000000 0.005000
v -0.050000 1.790000 -0.005000
v -0.050000 1.790000 0.005000
v 0.000000 -0.120000 -0.005000
v 0.000000 -0.120000 0.005000
v 0.000000 -0.060000 -0.005000
v 0.000000 -0.060000 0.005000
v 0.000000 1.890000 -0.005000
v 0.000000 1.890000 0.005000
v 0.050000 1.790000 -0.005000
v 0.050000 1.790000 0.005000
v 0.060000 -0.060000 -0.005000
v 0.060000 -0.060000 0.005000
v 0.060000 0.000000 -0.005000
v 0.060000 0.000000 0.005000
v 0.700000 -0.060000 -0.005000
v 0.700000 -0.060000 0.005000
v 0.700000 0.000000 -0.005000
v 0.700000 0.000000 0.005000
vt 0.008485 -0.000500 0.000000
vt 0.008485 0.000500 0.000000
vt 0.000000 0.000500 0.000000
vt 0.000000 -0.000500 0.000000
vt 0.064000 -0.000500 0.000000
vt 0.064000 0.000500 0.000000
vt 0.000000 0.000500 0.000000
vt 0.000000 -0.000500 0.000000
vt 0.006000 -0.000500 0.000000
vt 0.006000 0.000500 0.000000
vt 0.000000 0.000500 0.000000
vt 0.000000 -0.000500 0.000000
vt 0.064000 -0.000500 0.000000
vt 0.064000 0.000500 0.000000
vt 0.000000 0.000500 0.000000
vt 0.000000 -0.000500 0.000000
vt 0.008485 -0.000500 0.000000
vt 0.008485 0.000500 0.000000
vt 0.000000 0.000500 0.000000
vt 0.000000 -0.000500 0.000000
vt 0.027987 0.003554 0.000000
vt -0.036013 0.003554 0.000000
vt -0.036013 -0.002446 0.000000
vt 0.027987 -0.002446 0.000000
vt 0.033987 -0.008446 0.000000
vt 0.039987 -0.002446 0.000000
vt 0.103987 -0.002446 0.000000
vt 0.103987 0.003554 0.000000
vt 0.039987 0.003554 0.000000
vt 0.033987 -0.002446 0.000000
vt 0.006000 -0.000500 0.000000
vt 0.006000 0.000500 0.000000
vt 0.000000 0.000500 0.000000
vt 0.000000 -0.000500 0.000000
vt 0.064000 -0.000500 0.000000
vt 0.064000 0.000500 0.000000
vt 0.000000 0.000500 0.000000
vt 0.000000 -0.000500 0.000000
vt 0.008485 -0.000500 0.000000
vt 0.008485 0.000500 0.000000
vt 0.000000 0.000500 0.000000
vt 0.000000 -0.000500 0.000000
vt 0.008485 -0.000500 0.000000
vt 0.008485 0.000500 0.000000
vt 0.000000 0.000500 0.000000
vt 0.000000 -0.000500 0.000000
vt 0.064000 -0.000500 0.000000
vt 0.064000 0.000500 0.000000
vt 0.000000 0.000500 0.000000
vt 0.000000 -0.000500 0.000000
vt 0.036013 0.003554 0.000000
vt -0.027987 0.003554 0.000000
vt -0.033987 -0.002446 0.000000
vt -0.039987 0.003554 0.000000
vt -0.103987 0.003554 0.000000
vt -0.103987 -0.002446 0.000000
vt -0.039987 -0.002446 0.000000
vt -0.033987 -0.008446 0.000000
vt -0.027987 -0.002446 0.000000
vt 0.036013 -0.002446 0.000000
vt 0.000000 0.006545 0.000000
vt -0.005000 -0.003455 0.000000
vt 0.005000 -0.003455 0.000000
vt 0.010000 -0.000500 0.000000
vt 0.010000 0.000500 0.000000
vt 0.000000 0.000500 0.000000
vt 0.000000 -0.000500 0.000000
vt 0.011180 -0.000500 0.000000
vt 0.011180 0.000500 0.000000
vt 0.000000 0.000500 0.000000
vt 0.000000 -0.000500 0.000000
vt 0.011180 -0.000500 0.000000
vt 0.011180 0.000500 0.000000
vt 0.000000 0.000500 0.000000
vt 0.000000 -0.000500 0.000000
vt 0.005000 -0.003455 0.000000
vt 0.000000 0.006545 0.000000
vt -0.005000 -0.003455 0.000000
vn -0.070711 -0.070711 0.000000
vn -0.070711 -0.070711 0.000000
vn -0.070711 -0.070711 0.000000
vn -0.070711 -0.070711 0.000000
vn 0.000000 -0.100000 0.000000
vn 0.000000 -0.100000 0.000000
vn 0.000000 -0.100000 0.000000
vn 0.000000 -0.100000 0.000000
vn -0.100000 0.000000 0.000000
vn -0.100000 0.000000 0.000000
vn -0.100000 0.000000 0.000000
vn -0.100000 0.000000 0.000000
vn 0.000000 0.100000 0.000000
vn 0.000000 0.100000 0.000000
vn 0.000000 0.100000 0.000000
vn 0.000000 0.100000 0.000000
vn 0.070711 0.070711 0.000000
vn 0.070711 0.070711 0.000000
vn 0.070711 0.070711 0.000000
vn 0.070711 0.070711 0.000000
vn 0.000000 0.000000 -0.100000
vn 0.000000 0.000000 -0.100000
vn 0.000000 0.000000 -0.100000
vn 0.000000 0.000000 -0.100000
vn 0.000000 0.000000 -0.100000
vn 0.000000 0.000000 -0.100000
vn 0.000000 0.000000 -0.100000
vn 0.000000 0.000000 -0.100000
vn 0.000000 0.000000 -0.100000
vn 0.000000 0.000000 -0.100000
vn 0.100000 0.000000 0.000000
vn 0.100000 0.000000 0.000000
vn 0.100000 0.000000 0.000000
vn 0.100000 0.000000 0.000000
vn 0.000000 -0.100000 0.000000
vn 0.000000 -0.100000 0.000000
vn 0.000000 -0.100000 0.000000
vn 0.000000 -0.100000 0.000000
vn 0.070711 -0.070711 0.000000
vn 0.070711 -0.070711 0.000000
vn 0.070711 -0.070711 0.000000
vn 0.070711 -0.070711 0.000000
vn -0.070711 0.070711 0.000000
vn -0.070711 0.070711 0.000000
vn -0.070711 0.070711 0.000000
vn -0.070711 0.070711 0.000000
vn 0.000000 0.100000 0.000000
vn 0.000000 0.100000 0.000000
vn 0.000000 0.100000 0.000000
vn 0.000000 0.100000 0.000000
vn 0.000000 0.000000 0.100000
vn 0.000000 0.000000 0.100000
vn 0.000000 0.000000 0.100000
vn 0.000000 0.000000 0.100000
vn 0.000000 0.000000 0.100000
vn 0.000000 0.000000 0.100000
vn 0.000000 0.000000 0.100000
vn 0.000000 0.000000 0.100000
vn 0.000000 0.000000 0.100000
vn 0.000000 0.000000 0.100000
vn 0.000000 0.000000 -0.100000
vn 0.000000 0.000000 -0.100000
vn 0.000000 0.000000 -0.100000
vn 0.000000 -0.100000 0.000000
vn 0.000000 -0.100000 0.000000
vn 0.000000 -0.100000 0.000000
vn 0.000000 -0.100000 0.000000
vn -0.089443 0.044721 0.000000
vn -0.089443 0.044721 0.000000
vn -0.089443 0.044721 0.000000
vn -0.089443 0.044721 0.000000
vn 0.089443 0.044721 0.000000
vn 0.089443 0.044721 0.000000
vn 0.089443 0.044721 0.000000
vn 0.089443 0.044721 0.000000
vn 0.000000 0.000000 0.100000
vn 0.000000 0.000000 0.100000
vn 0.000000 0.000000 0.100000
usemtl 224,0,201
f 12/2/2 6/3/3 11/1/1
f 11/1/1 6/3/3 5/4/4
f 6/6/6 2/7/7 5/5/5
f 5/5/5 2/7/7 1/8/8
f 2/10/10 4/11/11 1/9/9
f 1/9/9 4/11/11 3/12/12
f 4/14/14 8/15/15 3/13/13
f 3/13/13 8/15/15 7/16/16
f 8/18/18 14/19/19 7/17/17
f 7/17/17 14/19/19 13/20/20
f 13/30/30 21/21/21 19/24/24
f 19/24/24 21/21/21 25/22/22
f 19/24/24 25/22/22 23/23/23
f 19/24/24 11/25/25 13/30/30
f 13/30/30 11/25/25 5/26/26
f 13/30/30 5/26/26 7/29/29
f 7/29/29 5/26/26 1/27/27
f 7/29/29 1/27/27 3/28/28
f 26/32/32 24/33/33 25/31/31
f 25/31/31 24/33/33 23/34/34
f 24/36/36 20/37/37 23/35/35
f 23/35/35 20/37/37 19/38/38
f 20/40/40 12/41/41 19/39/39
f 19/39/39 12/41/41 11/42/42
f 14/44/44 22/45/45 13/43/43
f 13/43/43 22/45/45 21/46/46
f 22/48/48 26/49/49 21/47/47
f 21/47/47 26/49/49 25/50/50
f 26/51/51 22/52/52 24/60/60
f 24/60/60 22/52/52 20/59/59
f 20/59/59 22/52/52 14/53/53
f 20/59/59 14/53/53 12/58/58
f 12/58/58 14/53/53 6/57/57
f 6/57/57 14/53/53 8/54/54
f 6/57/57 8/54/54 4/55/55
f 4/55/55 2/56/56 6/57/57
f 15/61/61 17/62/62 9/63/63
f 18/65/65 10/66/66 17/64/64
f 17/64/64 10/66/66 9/67/67
f 10/69/69 16/70/70 9/68/68
f 9/68/68 16/70/70 15/71/71
f 16/73/73 18/74/74 15/72/72
f 15/72/72 18/74/74 17/75/75
f 18/76/76 16/77/77 10/78/78

# 26 vertices
# 78 texture params
# 78 normals
# 44 facets

# 1 groups
